<svg width="20" height="20" viewBox="0 0 20 20" fill="none" xmlns="http://www.w3.org/2000/svg">
<path d="M11.8291 5.15357C11.3451 5.19572 10.7861 5.23787 10.2271 5.32032C9.371 5.44119 8.51494 5.60608 7.80796 5.97304C6.4307 6.58918 5.49954 7.89772 5.49954 9.82179C5.49954 12.238 6.91464 13.4635 8.70072 13.4635C9.29759 13.4635 9.78096 13.3835 10.2271 13.2602C10.9357 13.0147 11.5315 12.5641 12.2385 11.7471C12.649 12.3608 12.7597 12.6478 13.4678 13.3023C13.6535 13.3848 13.8393 13.3848 13.9884 13.2614C14.4351 12.8529 15.216 12.1159 15.6265 11.7068C15.8118 11.5413 15.7751 11.2977 15.6638 11.0919C15.2533 10.5191 14.845 10.027 14.845 8.9236V5.23973C14.845 3.68201 14.9551 2.25074 13.915 1.18766C13.0578 0.32543 11.7178 0 10.6765 0C10.5275 0 10.379 0 10.2293 0C8.33086 0.122114 6.32116 1.02092 5.87336 3.60205C5.79995 3.92748 6.02413 4.05207 6.17264 4.0936L8.25688 4.38122C8.4805 4.33783 8.59174 4.13451 8.62844 3.92872C8.81648 3.03053 9.48563 2.57989 10.2299 2.49744C10.2677 2.49744 10.305 2.49744 10.3795 2.49744C10.8256 2.49744 11.309 2.70324 11.5704 3.10925C11.8658 3.60205 11.8308 4.25786 11.8308 4.82938L11.8291 5.15357ZM11.4197 10.0245C11.1593 10.5979 10.7121 10.9661 10.2282 11.0894C10.1542 11.0894 10.0435 11.1316 9.93116 11.1316C9.11238 11.1316 8.62675 10.4355 8.62675 9.41144C8.62675 8.10352 9.33486 7.48737 10.2282 7.20161C10.7121 7.0795 11.2712 7.03735 11.8296 7.03735V7.5289C11.8291 8.4711 11.8641 9.20688 11.4197 10.0245ZM20 15.708V15.8413C19.9802 16.6416 19.5957 18.177 18.6854 19.0219C18.5036 19.1768 18.3212 19.0882 18.4014 18.8644C18.6662 18.1547 19.2716 16.5071 18.9887 16.1296C18.7882 15.8413 17.9575 15.863 17.25 15.93C16.927 15.9746 16.643 15.995 16.4205 16.0434C16.2189 16.0638 16.1771 15.8655 16.3804 15.7105C16.6435 15.5103 16.9276 15.3553 17.2506 15.2419C18.402 14.865 19.7386 15.0869 19.9209 15.3324C19.9605 15.3956 20 15.5289 20 15.708ZM18.079 17.2639C17.8158 17.4852 17.534 17.6867 17.25 17.867C15.1262 19.2686 12.3762 20 9.99046 20C6.14667 20 2.70889 18.4429 0.100623 15.8413C-0.12299 15.6405 0.0594017 15.3522 0.322543 15.5072C3.13353 17.3085 6.61197 18.3995 10.2118 18.3995C12.4779 18.3995 14.9224 17.9321 17.2494 16.9298C17.4104 16.8653 17.5928 16.7736 17.7548 16.7091C18.119 16.5287 18.4432 16.9769 18.079 17.2639Z" fill="#FE5808"/>
</svg>
