<svg width="37" height="26" viewBox="0 0 37 26" fill="none" xmlns="http://www.w3.org/2000/svg">
<path d="M7.28402 19.8642V13.777C5.01133 13.2337 3.34671 12.4129 2.28522 11.3132C1.22571 10.2129 0.693811 8.87817 0.693811 7.30907C0.693811 5.71774 1.29397 4.38302 2.49297 3.30394C3.69428 2.22387 5.28898 1.60114 7.28402 1.43867V0H9.80436V1.43867C11.647 1.62075 13.1138 2.14542 14.2013 3.01463C15.2925 3.88124 15.9857 5.04074 16.2897 6.49314L11.8894 6.97302C11.6246 5.82888 10.9282 5.0561 9.80436 4.64911V10.3306C12.5862 10.9602 14.4816 11.7761 15.4871 12.7816C16.4978 13.7836 17 15.0686 17 16.6393C17 18.3928 16.3646 19.8723 15.0963 21.0724C13.8291 22.276 12.0619 23.0109 9.80436 23.2815V26H7.28402V23.3561C5.27876 23.1491 3.65042 22.5248 2.39899 21.4771C1.14657 20.431 0.348224 18.9547 0 17.0473L4.53615 16.6393C4.72147 17.4128 5.06904 18.0849 5.58115 18.6452C6.08964 19.2087 6.65847 19.6151 7.28402 19.8642ZM7.28402 4.604C6.59845 4.79949 6.05303 5.13031 5.64908 5.59352C5.24513 6.05804 5.04035 6.57094 5.04035 7.13451C5.04035 7.6474 5.22402 8.12402 5.59698 8.56402C5.96763 9.00827 6.52854 9.36132 7.28237 9.63199V4.604H7.28402ZM9.80436 20.0688C10.6719 19.9351 11.3786 19.5984 11.9221 19.06C12.4681 18.5183 12.7395 17.8887 12.7395 17.1607C12.7395 16.5138 12.5094 15.9522 12.055 15.4815C11.5973 15.014 10.8477 14.6518 9.80436 14.4047V20.0688Z" fill="white"/>
<g opacity="0.9">
<path d="M35.8844 7.45674L27.7389 23.5145C27.4106 24.1618 26.5894 24.1618 26.2611 23.5145L18.1156 7.45674C17.7872 6.80944 18.1977 6 18.8545 6L35.1455 6C35.8023 6 36.2128 6.80902 35.8844 7.45674Z" fill="white"/>
<path d="M27.7389 23.5145L35.8844 7.45674C35.9334 7.35987 35.9611 7.25968 35.979 7.15907L28.1042 22.6831C27.7758 23.3304 26.9547 23.3304 26.6263 22.6831L18.4808 6.62527C18.4074 6.48017 18.3756 6.3276 18.3709 6.1771C18.0283 6.44983 17.8803 6.99236 18.1156 7.45674L26.2611 23.5145C26.5894 24.1618 27.4106 24.1618 27.7389 23.5145Z" fill="white"/>
<path d="M35.8844 7.45674L27.7389 23.5145C27.4106 24.1618 26.5894 24.1618 26.2611 23.5145L18.1156 7.45674C17.7872 6.80944 18.1977 6 18.8545 6L35.1455 6C35.8023 6 36.2128 6.80902 35.8844 7.45674Z" fill="white" stroke="black" stroke-miterlimit="10"/>
</g>
</svg>
