<svg width="20" height="20" viewBox="0 0 20 20" fill="none" xmlns="http://www.w3.org/2000/svg">
<g opacity="0.9">
<path d="M18.4385 1.71191C18.5152 1.86326 18.5254 2.0589 18.4385 2.23047L10.293 18.2881C10.2097 18.4522 10.0897 18.5 10 18.5C9.91028 18.5 9.79031 18.4522 9.70703 18.2881L1.56152 2.23047C1.47463 2.05916 1.48469 1.86344 1.56152 1.71191C1.63814 1.56087 1.75145 1.5 1.85449 1.5L18.1455 1.5C18.2487 1.5 18.3619 1.56102 18.4385 1.71191Z" fill="#E74C3C" stroke="#E74C3C"/>
<mask id="path-2-inside-1_12_6" fill="white">
<path d="M10.7389 18.5145L18.8844 2.45674C18.9334 2.35987 18.9611 2.25968 18.979 2.15907L11.1042 17.6831C10.7758 18.3304 9.9547 18.3304 9.62632 17.6831L1.48082 1.62526C1.4074 1.48017 1.37562 1.3276 1.37087 1.1771C1.02825 1.44982 0.880315 1.99236 1.11555 2.45674L9.26105 18.5145C9.58943 19.1618 10.4106 19.1618 10.7389 18.5145Z"/>
</mask>
<path d="M10.7389 18.5145L18.8844 2.45674C18.9334 2.35987 18.9611 2.25968 18.979 2.15907L11.1042 17.6831C10.7758 18.3304 9.9547 18.3304 9.62632 17.6831L1.48082 1.62526C1.4074 1.48017 1.37562 1.3276 1.37087 1.1771C1.02825 1.44982 0.880315 1.99236 1.11555 2.45674L9.26105 18.5145C9.58943 19.1618 10.4106 19.1618 10.7389 18.5145Z" fill="#E74C3C"/>
<path d="M10.7389 18.5145L11.6307 18.9669L11.6307 18.9669L10.7389 18.5145ZM18.8844 2.45674L19.7763 2.90912L19.777 2.90773L18.8844 2.45674ZM18.979 2.15907L19.9636 2.33422L18.0872 1.70668L18.979 2.15907ZM11.1042 17.6831L11.996 18.1355L11.996 18.1354L11.1042 17.6831ZM9.62632 17.6831L8.7345 18.1354L8.73451 18.1355L9.62632 17.6831ZM1.48082 1.62526L0.588548 2.07677L0.588996 2.07765L1.48082 1.62526ZM1.37087 1.1771L2.37037 1.14556L2.30752 -0.846577L0.748093 0.394703L1.37087 1.1771ZM1.11555 2.45674L0.223473 2.90862L0.223727 2.90912L1.11555 2.45674ZM9.26105 18.5145L8.36923 18.9669L8.36924 18.9669L9.26105 18.5145ZM10.7389 18.5145L11.6307 18.9669L19.7763 2.90912L18.8844 2.45674L17.9926 2.00435L9.84711 18.0621L10.7389 18.5145ZM18.8844 2.45674L19.777 2.90773C19.883 2.69779 19.9346 2.49696 19.9636 2.33422L18.979 2.15907L17.9945 1.98392C17.9876 2.02239 17.9837 2.02194 17.9919 2.00575L18.8844 2.45674ZM18.979 2.15907L18.0872 1.70668L10.2124 17.2307L11.1042 17.6831L11.996 18.1354L19.8709 2.61146L18.979 2.15907ZM11.1042 17.6831L10.2124 17.2306C10.2077 17.2399 10.2151 17.2218 10.2475 17.2013C10.2785 17.1817 10.3198 17.1685 10.3653 17.1685C10.4108 17.1685 10.452 17.1817 10.4831 17.2013C10.5155 17.2218 10.5228 17.2399 10.5181 17.2306L9.62632 17.6831L8.73451 18.1355C9.06052 18.7781 9.68257 19.1685 10.3653 19.1685C11.0479 19.1685 11.67 18.7781 11.996 18.1355L11.1042 17.6831ZM9.62632 17.6831L10.5181 17.2307L2.37264 1.17288L1.48082 1.62526L0.588996 2.07765L8.7345 18.1354L9.62632 17.6831ZM1.48082 1.62526L2.37309 1.17376C2.37422 1.176 2.37408 1.1766 2.37337 1.17359C2.37256 1.17014 2.37087 1.16127 2.37037 1.14556L1.37087 1.1771L0.371368 1.20864C0.379906 1.47925 0.438285 1.77982 0.588549 2.07677L1.48082 1.62526ZM1.37087 1.1771L0.748093 0.394703C0.0383013 0.959686 -0.228457 2.01646 0.223473 2.90862L1.11555 2.45674L2.00762 2.00485C2.00384 1.99737 2.00218 1.99108 2.00147 1.98492C2.00067 1.97802 2.00097 1.9698 2.00289 1.96113C2.00489 1.95211 2.00782 1.94631 2.00891 1.9445C2.01005 1.94262 2.00661 1.94918 1.99365 1.9595L1.37087 1.1771ZM1.11555 2.45674L0.223727 2.90912L8.36923 18.9669L9.26105 18.5145L10.1529 18.0621L2.00737 2.00435L1.11555 2.45674ZM9.26105 18.5145L8.36924 18.9669C8.69525 19.6096 9.3173 20 9.99999 20C10.6827 20 11.3047 19.6096 11.6307 18.9669L10.7389 18.5145L9.84712 18.0621C9.84241 18.0714 9.84979 18.0532 9.88219 18.0328C9.91328 18.0132 9.95449 18 9.99999 18C10.0455 18 10.0867 18.0132 10.1178 18.0328C10.1502 18.0532 10.1576 18.0714 10.1529 18.0621L9.26105 18.5145Z" fill="#E74C3C" mask="url(#path-2-inside-1_12_6)"/>
<path d="M18.8844 2.45674L10.7389 18.5145C10.4106 19.1618 9.58944 19.1618 9.26106 18.5145L1.11556 2.45674C0.787183 1.80944 1.19774 1 1.8545 1L18.1455 1C18.8023 1 19.2128 1.80902 18.8844 2.45674Z" fill="#E74C3C" stroke="#E74C3C" stroke-miterlimit="10"/>
</g>
</svg>
