<svg width="30" height="30" viewBox="0 0 30 30" fill="none" xmlns="http://www.w3.org/2000/svg">
<g clip-path="url(#clip0_9_64)">
<path d="M2.20896 14.9708C2.09544 14.9909 1.98372 15 1.87398 15C0.984032 15 0.194866 14.3627 0.0300959 13.4584C-0.153161 12.4386 0.52453 11.4626 1.54444 11.2795C6.13476 10.4516 11.0656 8.11164 16.2128 4.35278L14.0485 1.72697L24.3754 0.000247478L20.7079 9.80732L18.6005 7.25119C12.8691 11.4736 7.49335 14.0188 2.20896 14.9708ZM5.62573 20.625H3.75069C2.71625 20.625 1.87565 21.4635 1.87565 22.4996V28.1247C1.87565 29.1612 2.71619 29.9997 3.75069 29.9997H5.62573C6.66208 29.9997 7.50059 29.1612 7.50059 28.1247V22.4996C7.50059 21.4635 6.66208 20.625 5.62573 20.625ZM20.6253 13.1251H18.7503C17.7141 13.1251 16.8756 13.9636 16.8756 15V28.1247C16.8756 29.1612 17.7141 29.9997 18.7503 29.9997H20.6253C21.6619 29.9997 22.5004 29.1612 22.5004 28.1247V15C22.5004 13.9637 21.6618 13.1251 20.6253 13.1251ZM28.1254 9.37509H26.2501C25.2139 9.37509 24.3754 10.2138 24.3754 11.2501V28.1248C24.3754 29.1612 25.2139 29.9998 26.2501 29.9998H28.1254C29.1616 29.9998 30.0001 29.1612 30.0001 28.1248V11.2501C30.0002 10.2138 29.1616 9.37509 28.1254 9.37509ZM13.1255 16.8749H11.2506C10.2162 16.8749 9.37557 17.7137 9.37557 18.7499V28.1248C9.37557 29.1612 10.2161 29.9998 11.2506 29.9998H13.1255C14.162 29.9998 15.0005 29.1612 15.0005 28.1248V18.7499C15.0005 17.7137 14.162 16.8749 13.1255 16.8749Z" fill="white"/>
</g>
<defs>
<clipPath id="clip0_9_64">
<rect width="30" height="30" fill="white"/>
</clipPath>
</defs>
</svg>
