<svg width="40" height="40" viewBox="0 0 40 40" fill="none" xmlns="http://www.w3.org/2000/svg">
<g clip-path="url(#clip0_8_29)">
<path d="M20 10.5097L5.73419 22.2703C5.73419 22.2869 5.73002 22.3113 5.72168 22.3446C5.71351 22.3776 5.70917 22.4016 5.70917 22.4187V34.3276C5.70917 34.7576 5.86637 35.1302 6.18069 35.444C6.49492 35.758 6.86703 35.9159 7.2971 35.9159H16.824V26.3885H23.1761V35.9163H32.7029C33.1329 35.9163 33.5055 35.7587 33.8193 35.444C34.1336 35.1305 34.2913 34.7576 34.2913 34.3276V22.4187C34.2913 22.3526 34.2823 22.3027 34.2663 22.2703L20 10.5097Z" fill="white"/>
<path d="M39.724 19.5907L34.2908 15.0751V4.95237C34.2908 4.72095 34.2164 4.53064 34.0671 4.38169C33.9191 4.23292 33.7287 4.15853 33.4968 4.15853H28.7333C28.5016 4.15853 28.3114 4.23292 28.1623 4.38169C28.0137 4.53064 27.9394 4.72104 27.9394 4.95237V9.79037L21.8857 4.72886C21.357 4.29879 20.7284 4.0838 20.0005 4.0838C19.2727 4.0838 18.6442 4.29879 18.1149 4.72886L0.275635 19.5907C0.110264 19.7227 0.0196269 19.9005 0.00276822 20.1239C-0.0140035 20.347 0.0437851 20.542 0.176308 20.7072L1.71453 22.5433C1.84705 22.692 2.0205 22.783 2.23558 22.8163C2.43415 22.833 2.63272 22.7749 2.83128 22.6427L20 8.32654L37.1689 22.6426C37.3015 22.758 37.4748 22.8156 37.6899 22.8156H37.7645C37.9792 22.7829 38.1523 22.6913 38.2855 22.5429L39.8239 20.7072C39.9562 20.5415 40.0141 20.3469 39.9969 20.1235C39.98 19.9008 39.889 19.723 39.724 19.5907Z" fill="white"/>
</g>
<defs>
<clipPath id="clip0_8_29">
<rect width="40" height="40" fill="white"/>
</clipPath>
</defs>
</svg>
