<svg width="37" height="26" viewBox="0 0 37 26" fill="none" xmlns="http://www.w3.org/2000/svg">
<path d="M7.28402 19.8642V13.777C5.01133 13.2337 3.34671 12.4129 2.28522 11.3132C1.22571 10.2129 0.693811 8.87817 0.693811 7.30907C0.693811 5.71774 1.29397 4.38302 2.49297 3.30394C3.69428 2.22387 5.28898 1.60114 7.28402 1.43867V0H9.80436V1.43867C11.647 1.62075 13.1138 2.14542 14.2013 3.01463C15.2925 3.88124 15.9857 5.04074 16.2897 6.49314L11.8894 6.97302C11.6246 5.82888 10.9282 5.0561 9.80436 4.64911V10.3306C12.5862 10.9602 14.4816 11.7761 15.4871 12.7816C16.4978 13.7836 17 15.0686 17 16.6393C17 18.3928 16.3646 19.8723 15.0963 21.0724C13.8291 22.276 12.0619 23.0109 9.80436 23.2815V26H7.28402V23.3561C5.27876 23.1491 3.65042 22.5248 2.39899 21.4771C1.14657 20.431 0.348224 18.9547 0 17.0473L4.53615 16.6393C4.72147 17.4128 5.06904 18.0849 5.58115 18.6452C6.08964 19.2087 6.65847 19.6151 7.28402 19.8642ZM7.28402 4.604C6.59845 4.79949 6.05303 5.13031 5.64908 5.59352C5.24513 6.05804 5.04035 6.57094 5.04035 7.13451C5.04035 7.6474 5.22402 8.12402 5.59698 8.56402C5.96763 9.00827 6.52854 9.36132 7.28237 9.63199V4.604H7.28402ZM9.80436 20.0688C10.6719 19.9351 11.3786 19.5984 11.9221 19.06C12.4681 18.5183 12.7395 17.8887 12.7395 17.1607C12.7395 16.5138 12.5094 15.9522 12.055 15.4815C11.5973 15.014 10.8477 14.6518 9.80436 14.4047V20.0688Z" fill="white"/>
<g opacity="0.9">
<path d="M18.1156 20.5433L26.2611 4.48547C26.5894 3.83817 27.4106 3.83817 27.7389 4.48547L35.8844 20.5433C36.2128 21.1906 35.8023 22 35.1455 22H18.8545C18.1977 22 17.7872 21.191 18.1156 20.5433Z" fill="white"/>
<path d="M26.2611 4.48548L18.1156 20.5433C18.0666 20.6401 18.0388 20.7403 18.021 20.8409L25.8958 5.31695C26.2242 4.66965 27.0453 4.66965 27.3737 5.31695L35.5192 21.3747C35.5926 21.5198 35.6244 21.6724 35.6291 21.8229C35.9717 21.5502 36.1197 21.0076 35.8844 20.5433L27.7389 4.48548C27.4106 3.83817 26.5894 3.83817 26.2611 4.48548Z" fill="white"/>
<path d="M18.1156 20.5433L26.2611 4.48547C26.5894 3.83817 27.4106 3.83817 27.7389 4.48547L35.8844 20.5433C36.2128 21.1906 35.8023 22 35.1455 22H18.8545C18.1977 22 17.7872 21.191 18.1156 20.5433Z" fill="white" stroke="black" stroke-miterlimit="10"/>
</g>
</svg>
