<svg width="20" height="20" viewBox="0 0 20 20" fill="none" xmlns="http://www.w3.org/2000/svg">
<g opacity="0.9">
<path d="M1.56152 18.2881C1.4848 18.1367 1.4746 17.9411 1.56152 17.7695L9.70703 1.71191C9.79031 1.54775 9.91028 1.5 10 1.5C10.0897 1.5 10.2097 1.54775 10.293 1.71191L18.4385 17.7695C18.5254 17.9408 18.5153 18.1366 18.4385 18.2881C18.3619 18.4391 18.2486 18.5 18.1455 18.5H1.85449C1.75133 18.5 1.63808 18.439 1.56152 18.2881Z" fill="#2ECC71" stroke="#2ECC71"/>
<mask id="path-2-inside-1_12_2" fill="white">
<path d="M9.26106 1.48548L1.11556 17.5433C1.06661 17.6401 1.03885 17.7403 1.02095 17.8409L8.89579 2.31695C9.22417 1.66965 10.0453 1.66965 10.3737 2.31695L18.5192 18.3747C18.5926 18.5198 18.6244 18.6724 18.6291 18.8229C18.9717 18.5502 19.1197 18.0076 18.8844 17.5433L10.7389 1.48548C10.4106 0.838177 9.58943 0.838177 9.26106 1.48548Z"/>
</mask>
<path d="M9.26106 1.48548L1.11556 17.5433C1.06661 17.6401 1.03885 17.7403 1.02095 17.8409L8.89579 2.31695C9.22417 1.66965 10.0453 1.66965 10.3737 2.31695L18.5192 18.3747C18.5926 18.5198 18.6244 18.6724 18.6291 18.8229C18.9717 18.5502 19.1197 18.0076 18.8844 17.5433L10.7389 1.48548C10.4106 0.838177 9.58943 0.838177 9.26106 1.48548Z" fill="#2ECC71"/>
<path d="M9.26106 1.48548L8.36925 1.03306L8.36924 1.03309L9.26106 1.48548ZM1.11556 17.5433L0.223733 17.0909L0.223026 17.0923L1.11556 17.5433ZM1.02095 17.8409L0.0364086 17.6658L1.91277 18.2933L1.02095 17.8409ZM8.89579 2.31695L8.00398 1.86453L8.00397 1.86456L8.89579 2.31695ZM10.3737 2.31695L11.2655 1.86456L11.2655 1.86453L10.3737 2.31695ZM18.5192 18.3747L19.4114 17.9232L19.411 17.9223L18.5192 18.3747ZM18.6291 18.8229L17.6296 18.8544L17.6925 20.8466L19.2519 19.6053L18.6291 18.8229ZM18.8844 17.5433L19.7765 17.0914L19.7763 17.0909L18.8844 17.5433ZM10.7389 1.48548L11.6308 1.03309L11.6307 1.03306L10.7389 1.48548ZM9.26106 1.48548L8.36924 1.03309L0.223734 17.0909L1.11556 17.5433L2.00738 17.9957L10.1529 1.93786L9.26106 1.48548ZM1.11556 17.5433L0.223026 17.0923C0.116949 17.3022 0.06536 17.503 0.0364086 17.6658L1.02095 17.8409L2.00549 18.0161C2.01234 17.9776 2.01627 17.9781 2.00808 17.9943L1.11556 17.5433ZM1.02095 17.8409L1.91277 18.2933L9.78761 2.76934L8.89579 2.31695L8.00397 1.86456L0.129131 17.3885L1.02095 17.8409ZM8.89579 2.31695L9.7876 2.76936C9.7923 2.76009 9.78493 2.77823 9.75253 2.79866C9.72144 2.81827 9.68023 2.83147 9.63473 2.83147C9.58922 2.83147 9.54802 2.81827 9.51693 2.79866C9.48452 2.77823 9.47715 2.76009 9.48186 2.76936L10.3737 2.31695L11.2655 1.86453C10.9395 1.22191 10.3174 0.831473 9.63473 0.831473C8.95204 0.831473 8.32999 1.22191 8.00398 1.86453L8.89579 2.31695ZM10.3737 2.31695L9.48184 2.76934L17.6273 18.8271L18.5192 18.3747L19.411 17.9223L11.2655 1.86456L10.3737 2.31695ZM18.5192 18.3747L17.6269 18.8262C17.6258 18.824 17.6259 18.8234 17.6266 18.8264C17.6274 18.8299 17.6291 18.8387 17.6296 18.8544L18.6291 18.8229L19.6286 18.7914C19.6201 18.5207 19.5617 18.2202 19.4114 17.9232L18.5192 18.3747ZM18.6291 18.8229L19.2519 19.6053C19.9617 19.0403 20.2284 17.9835 19.7765 17.0914L18.8844 17.5433L17.9924 17.9952C17.9961 18.0026 17.9978 18.0089 17.9985 18.0151C17.9993 18.022 17.999 18.0302 17.9971 18.0389C17.9951 18.0479 17.9922 18.0537 17.9911 18.0555C17.9899 18.0574 17.9934 18.0508 18.0063 18.0405L18.6291 18.8229ZM18.8844 17.5433L19.7763 17.0909L11.6308 1.03309L10.7389 1.48548L9.84711 1.93786L17.9926 17.9957L18.8844 17.5433ZM10.7389 1.48548L11.6307 1.03306C11.3047 0.390438 10.6827 1.83595e-06 10 1.83595e-06C9.31731 1.83595e-06 8.69525 0.390438 8.36925 1.03306L9.26106 1.48548L10.1529 1.93789C10.1576 1.92862 10.1502 1.94676 10.1178 1.96719C10.0867 1.9868 10.0455 2 10 2C9.95449 2 9.91329 1.9868 9.8822 1.96719C9.84979 1.94676 9.84242 1.92862 9.84713 1.93789L10.7389 1.48548Z" fill="#2ECC71" mask="url(#path-2-inside-1_12_2)"/>
<path d="M1.11556 17.5433L9.26106 1.48547C9.58944 0.838174 10.4106 0.838174 10.7389 1.48547L18.8844 17.5433C19.2128 18.1906 18.8023 19 18.1455 19H1.8545C1.19775 19 0.787183 18.191 1.11556 17.5433Z" fill="#2ECC71" stroke="#2ECC71" stroke-miterlimit="10"/>
</g>
</svg>
